<?xml version="1.0" standalone="yes"?><svg version="1.1" xmlns="http://www.w3.org/2000/svg" xmlns:xlink="http://www.w3.org/1999/xlink" xmlns:ev="http://www.w3.org/2001/xml-events" width="319" height="319" shape-rendering="crispEdges"><rect width="11" height="11" x="0" y="0" fill="#000"/><rect width="11" height="11" x="11" y="0" fill="#000"/><rect width="11" height="11" x="22" y="0" fill="#000"/><rect width="11" height="11" x="33" y="0" fill="#000"/><rect width="11" height="11" x="44" y="0" fill="#000"/><rect width="11" height="11" x="55" y="0" fill="#000"/><rect width="11" height="11" x="66" y="0" fill="#000"/><rect width="11" height="11" x="88" y="0" fill="#000"/><rect width="11" height="11" x="132" y="0" fill="#000"/><rect width="11" height="11" x="154" y="0" fill="#000"/><rect width="11" height="11" x="165" y="0" fill="#000"/><rect width="11" height="11" x="176" y="0" fill="#000"/><rect width="11" height="11" x="187" y="0" fill="#000"/><rect width="11" height="11" x="198" y="0" fill="#000"/><rect width="11" height="11" x="242" y="0" fill="#000"/><rect width="11" height="11" x="253" y="0" fill="#000"/><rect width="11" height="11" x="264" y="0" fill="#000"/><rect width="11" height="11" x="275" y="0" fill="#000"/><rect width="11" height="11" x="286" y="0" fill="#000"/><rect width="11" height="11" x="297" y="0" fill="#000"/><rect width="11" height="11" x="308" y="0" fill="#000"/><rect width="11" height="11" x="0" y="11" fill="#000"/><rect width="11" height="11" x="66" y="11" fill="#000"/><rect width="11" height="11" x="88" y="11" fill="#000"/><rect width="11" height="11" x="110" y="11" fill="#000"/><rect width="11" height="11" x="121" y="11" fill="#000"/><rect width="11" height="11" x="143" y="11" fill="#000"/><rect width="11" height="11" x="154" y="11" fill="#000"/><rect width="11" height="11" x="187" y="11" fill="#000"/><rect width="11" height="11" x="220" y="11" fill="#000"/><rect width="11" height="11" x="242" y="11" fill="#000"/><rect width="11" height="11" x="308" y="11" fill="#000"/><rect width="11" height="11" x="0" y="22" fill="#000"/><rect width="11" height="11" x="22" y="22" fill="#000"/><rect width="11" height="11" x="33" y="22" fill="#000"/><rect width="11" height="11" x="44" y="22" fill="#000"/><rect width="11" height="11" x="66" y="22" fill="#000"/><rect width="11" height="11" x="88" y="22" fill="#000"/><rect width="11" height="11" x="121" y="22" fill="#000"/><rect width="11" height="11" x="154" y="22" fill="#000"/><rect width="11" height="11" x="176" y="22" fill="#000"/><rect width="11" height="11" x="198" y="22" fill="#000"/><rect width="11" height="11" x="220" y="22" fill="#000"/><rect width="11" height="11" x="242" y="22" fill="#000"/><rect width="11" height="11" x="264" y="22" fill="#000"/><rect width="11" height="11" x="275" y="22" fill="#000"/><rect width="11" height="11" x="286" y="22" fill="#000"/><rect width="11" height="11" x="308" y="22" fill="#000"/><rect width="11" height="11" x="0" y="33" fill="#000"/><rect width="11" height="11" x="22" y="33" fill="#000"/><rect width="11" height="11" x="33" y="33" fill="#000"/><rect width="11" height="11" x="44" y="33" fill="#000"/><rect width="11" height="11" x="66" y="33" fill="#000"/><rect width="11" height="11" x="99" y="33" fill="#000"/><rect width="11" height="11" x="121" y="33" fill="#000"/><rect width="11" height="11" x="154" y="33" fill="#000"/><rect width="11" height="11" x="187" y="33" fill="#000"/><rect width="11" height="11" x="198" y="33" fill="#000"/><rect width="11" height="11" x="242" y="33" fill="#000"/><rect width="11" height="11" x="264" y="33" fill="#000"/><rect width="11" height="11" x="275" y="33" fill="#000"/><rect width="11" height="11" x="286" y="33" fill="#000"/><rect width="11" height="11" x="308" y="33" fill="#000"/><rect width="11" height="11" x="0" y="44" fill="#000"/><rect width="11" height="11" x="22" y="44" fill="#000"/><rect width="11" height="11" x="33" y="44" fill="#000"/><rect width="11" height="11" x="44" y="44" fill="#000"/><rect width="11" height="11" x="66" y="44" fill="#000"/><rect width="11" height="11" x="110" y="44" fill="#000"/><rect width="11" height="11" x="165" y="44" fill="#000"/><rect width="11" height="11" x="187" y="44" fill="#000"/><rect width="11" height="11" x="198" y="44" fill="#000"/><rect width="11" height="11" x="209" y="44" fill="#000"/><rect width="11" height="11" x="220" y="44" fill="#000"/><rect width="11" height="11" x="242" y="44" fill="#000"/><rect width="11" height="11" x="264" y="44" fill="#000"/><rect width="11" height="11" x="275" y="44" fill="#000"/><rect width="11" height="11" x="286" y="44" fill="#000"/><rect width="11" height="11" x="308" y="44" fill="#000"/><rect width="11" height="11" x="0" y="55" fill="#000"/><rect width="11" height="11" x="66" y="55" fill="#000"/><rect width="11" height="11" x="88" y="55" fill="#000"/><rect width="11" height="11" x="99" y="55" fill="#000"/><rect width="11" height="11" x="121" y="55" fill="#000"/><rect width="11" height="11" x="143" y="55" fill="#000"/><rect width="11" height="11" x="154" y="55" fill="#000"/><rect width="11" height="11" x="187" y="55" fill="#000"/><rect width="11" height="11" x="220" y="55" fill="#000"/><rect width="11" height="11" x="242" y="55" fill="#000"/><rect width="11" height="11" x="308" y="55" fill="#000"/><rect width="11" height="11" x="0" y="66" fill="#000"/><rect width="11" height="11" x="11" y="66" fill="#000"/><rect width="11" height="11" x="22" y="66" fill="#000"/><rect width="11" height="11" x="33" y="66" fill="#000"/><rect width="11" height="11" x="44" y="66" fill="#000"/><rect width="11" height="11" x="55" y="66" fill="#000"/><rect width="11" height="11" x="66" y="66" fill="#000"/><rect width="11" height="11" x="88" y="66" fill="#000"/><rect width="11" height="11" x="110" y="66" fill="#000"/><rect width="11" height="11" x="132" y="66" fill="#000"/><rect width="11" height="11" x="154" y="66" fill="#000"/><rect width="11" height="11" x="176" y="66" fill="#000"/><rect width="11" height="11" x="198" y="66" fill="#000"/><rect width="11" height="11" x="220" y="66" fill="#000"/><rect width="11" height="11" x="242" y="66" fill="#000"/><rect width="11" height="11" x="253" y="66" fill="#000"/><rect width="11" height="11" x="264" y="66" fill="#000"/><rect width="11" height="11" x="275" y="66" fill="#000"/><rect width="11" height="11" x="286" y="66" fill="#000"/><rect width="11" height="11" x="297" y="66" fill="#000"/><rect width="11" height="11" x="308" y="66" fill="#000"/><rect width="11" height="11" x="88" y="77" fill="#000"/><rect width="11" height="11" x="121" y="77" fill="#000"/><rect width="11" height="11" x="132" y="77" fill="#000"/><rect width="11" height="11" x="176" y="77" fill="#000"/><rect width="11" height="11" x="187" y="77" fill="#000"/><rect width="11" height="11" x="198" y="77" fill="#000"/><rect width="11" height="11" x="22" y="88" fill="#000"/><rect width="11" height="11" x="33" y="88" fill="#000"/><rect width="11" height="11" x="44" y="88" fill="#000"/><rect width="11" height="11" x="66" y="88" fill="#000"/><rect width="11" height="11" x="88" y="88" fill="#000"/><rect width="11" height="11" x="99" y="88" fill="#000"/><rect width="11" height="11" x="121" y="88" fill="#000"/><rect width="11" height="11" x="132" y="88" fill="#000"/><rect width="11" height="11" x="154" y="88" fill="#000"/><rect width="11" height="11" x="176" y="88" fill="#000"/><rect width="11" height="11" x="209" y="88" fill="#000"/><rect width="11" height="11" x="231" y="88" fill="#000"/><rect width="11" height="11" x="242" y="88" fill="#000"/><rect width="11" height="11" x="253" y="88" fill="#000"/><rect width="11" height="11" x="286" y="88" fill="#000"/><rect width="11" height="11" x="297" y="88" fill="#000"/><rect width="11" height="11" x="308" y="88" fill="#000"/><rect width="11" height="11" x="0" y="99" fill="#000"/><rect width="11" height="11" x="11" y="99" fill="#000"/><rect width="11" height="11" x="22" y="99" fill="#000"/><rect width="11" height="11" x="33" y="99" fill="#000"/><rect width="11" height="11" x="88" y="99" fill="#000"/><rect width="11" height="11" x="99" y="99" fill="#000"/><rect width="11" height="11" x="110" y="99" fill="#000"/><rect width="11" height="11" x="121" y="99" fill="#000"/><rect width="11" height="11" x="132" y="99" fill="#000"/><rect width="11" height="11" x="176" y="99" fill="#000"/><rect width="11" height="11" x="187" y="99" fill="#000"/><rect width="11" height="11" x="198" y="99" fill="#000"/><rect width="11" height="11" x="209" y="99" fill="#000"/><rect width="11" height="11" x="220" y="99" fill="#000"/><rect width="11" height="11" x="231" y="99" fill="#000"/><rect width="11" height="11" x="242" y="99" fill="#000"/><rect width="11" height="11" x="253" y="99" fill="#000"/><rect width="11" height="11" x="264" y="99" fill="#000"/><rect width="11" height="11" x="308" y="99" fill="#000"/><rect width="11" height="11" x="22" y="110" fill="#000"/><rect width="11" height="11" x="33" y="110" fill="#000"/><rect width="11" height="11" x="66" y="110" fill="#000"/><rect width="11" height="11" x="88" y="110" fill="#000"/><rect width="11" height="11" x="99" y="110" fill="#000"/><rect width="11" height="11" x="121" y="110" fill="#000"/><rect width="11" height="11" x="132" y="110" fill="#000"/><rect width="11" height="11" x="165" y="110" fill="#000"/><rect width="11" height="11" x="187" y="110" fill="#000"/><rect width="11" height="11" x="220" y="110" fill="#000"/><rect width="11" height="11" x="253" y="110" fill="#000"/><rect width="11" height="11" x="264" y="110" fill="#000"/><rect width="11" height="11" x="275" y="110" fill="#000"/><rect width="11" height="11" x="297" y="110" fill="#000"/><rect width="11" height="11" x="11" y="121" fill="#000"/><rect width="11" height="11" x="33" y="121" fill="#000"/><rect width="11" height="11" x="44" y="121" fill="#000"/><rect width="11" height="11" x="99" y="121" fill="#000"/><rect width="11" height="11" x="110" y="121" fill="#000"/><rect width="11" height="11" x="143" y="121" fill="#000"/><rect width="11" height="11" x="154" y="121" fill="#000"/><rect width="11" height="11" x="176" y="121" fill="#000"/><rect width="11" height="11" x="198" y="121" fill="#000"/><rect width="11" height="11" x="209" y="121" fill="#000"/><rect width="11" height="11" x="220" y="121" fill="#000"/><rect width="11" height="11" x="231" y="121" fill="#000"/><rect width="11" height="11" x="242" y="121" fill="#000"/><rect width="11" height="11" x="253" y="121" fill="#000"/><rect width="11" height="11" x="275" y="121" fill="#000"/><rect width="11" height="11" x="308" y="121" fill="#000"/><rect width="11" height="11" x="33" y="132" fill="#000"/><rect width="11" height="11" x="44" y="132" fill="#000"/><rect width="11" height="11" x="66" y="132" fill="#000"/><rect width="11" height="11" x="88" y="132" fill="#000"/><rect width="11" height="11" x="110" y="132" fill="#000"/><rect width="11" height="11" x="154" y="132" fill="#000"/><rect width="11" height="11" x="165" y="132" fill="#000"/><rect width="11" height="11" x="253" y="132" fill="#000"/><rect width="11" height="11" x="275" y="132" fill="#000"/><rect width="11" height="11" x="286" y="132" fill="#000"/><rect width="11" height="11" x="0" y="143" fill="#000"/><rect width="11" height="11" x="33" y="143" fill="#000"/><rect width="11" height="11" x="77" y="143" fill="#000"/><rect width="11" height="11" x="88" y="143" fill="#000"/><rect width="11" height="11" x="99" y="143" fill="#000"/><rect width="11" height="11" x="110" y="143" fill="#000"/><rect width="11" height="11" x="143" y="143" fill="#000"/><rect width="11" height="11" x="176" y="143" fill="#000"/><rect width="11" height="11" x="187" y="143" fill="#000"/><rect width="11" height="11" x="209" y="143" fill="#000"/><rect width="11" height="11" x="220" y="143" fill="#000"/><rect width="11" height="11" x="231" y="143" fill="#000"/><rect width="11" height="11" x="242" y="143" fill="#000"/><rect width="11" height="11" x="253" y="143" fill="#000"/><rect width="11" height="11" x="264" y="143" fill="#000"/><rect width="11" height="11" x="297" y="143" fill="#000"/><rect width="11" height="11" x="308" y="143" fill="#000"/><rect width="11" height="11" x="11" y="154" fill="#000"/><rect width="11" height="11" x="22" y="154" fill="#000"/><rect width="11" height="11" x="55" y="154" fill="#000"/><rect width="11" height="11" x="66" y="154" fill="#000"/><rect width="11" height="11" x="88" y="154" fill="#000"/><rect width="11" height="11" x="121" y="154" fill="#000"/><rect width="11" height="11" x="132" y="154" fill="#000"/><rect width="11" height="11" x="154" y="154" fill="#000"/><rect width="11" height="11" x="176" y="154" fill="#000"/><rect width="11" height="11" x="187" y="154" fill="#000"/><rect width="11" height="11" x="198" y="154" fill="#000"/><rect width="11" height="11" x="231" y="154" fill="#000"/><rect width="11" height="11" x="242" y="154" fill="#000"/><rect width="11" height="11" x="253" y="154" fill="#000"/><rect width="11" height="11" x="264" y="154" fill="#000"/><rect width="11" height="11" x="275" y="154" fill="#000"/><rect width="11" height="11" x="44" y="165" fill="#000"/><rect width="11" height="11" x="77" y="165" fill="#000"/><rect width="11" height="11" x="110" y="165" fill="#000"/><rect width="11" height="11" x="143" y="165" fill="#000"/><rect width="11" height="11" x="165" y="165" fill="#000"/><rect width="11" height="11" x="176" y="165" fill="#000"/><rect width="11" height="11" x="198" y="165" fill="#000"/><rect width="11" height="11" x="220" y="165" fill="#000"/><rect width="11" height="11" x="253" y="165" fill="#000"/><rect width="11" height="11" x="308" y="165" fill="#000"/><rect width="11" height="11" x="11" y="176" fill="#000"/><rect width="11" height="11" x="33" y="176" fill="#000"/><rect width="11" height="11" x="55" y="176" fill="#000"/><rect width="11" height="11" x="66" y="176" fill="#000"/><rect width="11" height="11" x="88" y="176" fill="#000"/><rect width="11" height="11" x="110" y="176" fill="#000"/><rect width="11" height="11" x="121" y="176" fill="#000"/><rect width="11" height="11" x="132" y="176" fill="#000"/><rect width="11" height="11" x="143" y="176" fill="#000"/><rect width="11" height="11" x="165" y="176" fill="#000"/><rect width="11" height="11" x="209" y="176" fill="#000"/><rect width="11" height="11" x="275" y="176" fill="#000"/><rect width="11" height="11" x="286" y="176" fill="#000"/><rect width="11" height="11" x="0" y="187" fill="#000"/><rect width="11" height="11" x="44" y="187" fill="#000"/><rect width="11" height="11" x="55" y="187" fill="#000"/><rect width="11" height="11" x="132" y="187" fill="#000"/><rect width="11" height="11" x="143" y="187" fill="#000"/><rect width="11" height="11" x="154" y="187" fill="#000"/><rect width="11" height="11" x="187" y="187" fill="#000"/><rect width="11" height="11" x="209" y="187" fill="#000"/><rect width="11" height="11" x="220" y="187" fill="#000"/><rect width="11" height="11" x="231" y="187" fill="#000"/><rect width="11" height="11" x="242" y="187" fill="#000"/><rect width="11" height="11" x="264" y="187" fill="#000"/><rect width="11" height="11" x="308" y="187" fill="#000"/><rect width="11" height="11" x="0" y="198" fill="#000"/><rect width="11" height="11" x="33" y="198" fill="#000"/><rect width="11" height="11" x="66" y="198" fill="#000"/><rect width="11" height="11" x="88" y="198" fill="#000"/><rect width="11" height="11" x="110" y="198" fill="#000"/><rect width="11" height="11" x="121" y="198" fill="#000"/><rect width="11" height="11" x="132" y="198" fill="#000"/><rect width="11" height="11" x="143" y="198" fill="#000"/><rect width="11" height="11" x="176" y="198" fill="#000"/><rect width="11" height="11" x="187" y="198" fill="#000"/><rect width="11" height="11" x="198" y="198" fill="#000"/><rect width="11" height="11" x="220" y="198" fill="#000"/><rect width="11" height="11" x="231" y="198" fill="#000"/><rect width="11" height="11" x="242" y="198" fill="#000"/><rect width="11" height="11" x="253" y="198" fill="#000"/><rect width="11" height="11" x="286" y="198" fill="#000"/><rect width="11" height="11" x="297" y="198" fill="#000"/><rect width="11" height="11" x="0" y="209" fill="#000"/><rect width="11" height="11" x="22" y="209" fill="#000"/><rect width="11" height="11" x="77" y="209" fill="#000"/><rect width="11" height="11" x="99" y="209" fill="#000"/><rect width="11" height="11" x="110" y="209" fill="#000"/><rect width="11" height="11" x="165" y="209" fill="#000"/><rect width="11" height="11" x="176" y="209" fill="#000"/><rect width="11" height="11" x="253" y="209" fill="#000"/><rect width="11" height="11" x="275" y="209" fill="#000"/><rect width="11" height="11" x="308" y="209" fill="#000"/><rect width="11" height="11" x="0" y="220" fill="#000"/><rect width="11" height="11" x="33" y="220" fill="#000"/><rect width="11" height="11" x="55" y="220" fill="#000"/><rect width="11" height="11" x="66" y="220" fill="#000"/><rect width="11" height="11" x="99" y="220" fill="#000"/><rect width="11" height="11" x="110" y="220" fill="#000"/><rect width="11" height="11" x="121" y="220" fill="#000"/><rect width="11" height="11" x="132" y="220" fill="#000"/><rect width="11" height="11" x="220" y="220" fill="#000"/><rect width="11" height="11" x="231" y="220" fill="#000"/><rect width="11" height="11" x="242" y="220" fill="#000"/><rect width="11" height="11" x="253" y="220" fill="#000"/><rect width="11" height="11" x="264" y="220" fill="#000"/><rect width="11" height="11" x="286" y="220" fill="#000"/><rect width="11" height="11" x="88" y="231" fill="#000"/><rect width="11" height="11" x="110" y="231" fill="#000"/><rect width="11" height="11" x="132" y="231" fill="#000"/><rect width="11" height="11" x="154" y="231" fill="#000"/><rect width="11" height="11" x="165" y="231" fill="#000"/><rect width="11" height="11" x="176" y="231" fill="#000"/><rect width="11" height="11" x="187" y="231" fill="#000"/><rect width="11" height="11" x="198" y="231" fill="#000"/><rect width="11" height="11" x="220" y="231" fill="#000"/><rect width="11" height="11" x="264" y="231" fill="#000"/><rect width="11" height="11" x="297" y="231" fill="#000"/><rect width="11" height="11" x="308" y="231" fill="#000"/><rect width="11" height="11" x="0" y="242" fill="#000"/><rect width="11" height="11" x="11" y="242" fill="#000"/><rect width="11" height="11" x="22" y="242" fill="#000"/><rect width="11" height="11" x="33" y="242" fill="#000"/><rect width="11" height="11" x="44" y="242" fill="#000"/><rect width="11" height="11" x="55" y="242" fill="#000"/><rect width="11" height="11" x="66" y="242" fill="#000"/><rect width="11" height="11" x="99" y="242" fill="#000"/><rect width="11" height="11" x="110" y="242" fill="#000"/><rect width="11" height="11" x="121" y="242" fill="#000"/><rect width="11" height="11" x="132" y="242" fill="#000"/><rect width="11" height="11" x="143" y="242" fill="#000"/><rect width="11" height="11" x="176" y="242" fill="#000"/><rect width="11" height="11" x="209" y="242" fill="#000"/><rect width="11" height="11" x="220" y="242" fill="#000"/><rect width="11" height="11" x="242" y="242" fill="#000"/><rect width="11" height="11" x="264" y="242" fill="#000"/><rect width="11" height="11" x="275" y="242" fill="#000"/><rect width="11" height="11" x="0" y="253" fill="#000"/><rect width="11" height="11" x="66" y="253" fill="#000"/><rect width="11" height="11" x="110" y="253" fill="#000"/><rect width="11" height="11" x="143" y="253" fill="#000"/><rect width="11" height="11" x="154" y="253" fill="#000"/><rect width="11" height="11" x="165" y="253" fill="#000"/><rect width="11" height="11" x="209" y="253" fill="#000"/><rect width="11" height="11" x="220" y="253" fill="#000"/><rect width="11" height="11" x="264" y="253" fill="#000"/><rect width="11" height="11" x="0" y="264" fill="#000"/><rect width="11" height="11" x="22" y="264" fill="#000"/><rect width="11" height="11" x="33" y="264" fill="#000"/><rect width="11" height="11" x="44" y="264" fill="#000"/><rect width="11" height="11" x="66" y="264" fill="#000"/><rect width="11" height="11" x="88" y="264" fill="#000"/><rect width="11" height="11" x="110" y="264" fill="#000"/><rect width="11" height="11" x="121" y="264" fill="#000"/><rect width="11" height="11" x="154" y="264" fill="#000"/><rect width="11" height="11" x="187" y="264" fill="#000"/><rect width="11" height="11" x="198" y="264" fill="#000"/><rect width="11" height="11" x="220" y="264" fill="#000"/><rect width="11" height="11" x="231" y="264" fill="#000"/><rect width="11" height="11" x="242" y="264" fill="#000"/><rect width="11" height="11" x="253" y="264" fill="#000"/><rect width="11" height="11" x="264" y="264" fill="#000"/><rect width="11" height="11" x="275" y="264" fill="#000"/><rect width="11" height="11" x="286" y="264" fill="#000"/><rect width="11" height="11" x="308" y="264" fill="#000"/><rect width="11" height="11" x="0" y="275" fill="#000"/><rect width="11" height="11" x="22" y="275" fill="#000"/><rect width="11" height="11" x="33" y="275" fill="#000"/><rect width="11" height="11" x="44" y="275" fill="#000"/><rect width="11" height="11" x="66" y="275" fill="#000"/><rect width="11" height="11" x="88" y="275" fill="#000"/><rect width="11" height="11" x="121" y="275" fill="#000"/><rect width="11" height="11" x="132" y="275" fill="#000"/><rect width="11" height="11" x="154" y="275" fill="#000"/><rect width="11" height="11" x="209" y="275" fill="#000"/><rect width="11" height="11" x="220" y="275" fill="#000"/><rect width="11" height="11" x="0" y="286" fill="#000"/><rect width="11" height="11" x="22" y="286" fill="#000"/><rect width="11" height="11" x="33" y="286" fill="#000"/><rect width="11" height="11" x="44" y="286" fill="#000"/><rect width="11" height="11" x="66" y="286" fill="#000"/><rect width="11" height="11" x="88" y="286" fill="#000"/><rect width="11" height="11" x="121" y="286" fill="#000"/><rect width="11" height="11" x="132" y="286" fill="#000"/><rect width="11" height="11" x="187" y="286" fill="#000"/><rect width="11" height="11" x="198" y="286" fill="#000"/><rect width="11" height="11" x="209" y="286" fill="#000"/><rect width="11" height="11" x="220" y="286" fill="#000"/><rect width="11" height="11" x="231" y="286" fill="#000"/><rect width="11" height="11" x="242" y="286" fill="#000"/><rect width="11" height="11" x="264" y="286" fill="#000"/><rect width="11" height="11" x="286" y="286" fill="#000"/><rect width="11" height="11" x="297" y="286" fill="#000"/><rect width="11" height="11" x="0" y="297" fill="#000"/><rect width="11" height="11" x="66" y="297" fill="#000"/><rect width="11" height="11" x="99" y="297" fill="#000"/><rect width="11" height="11" x="121" y="297" fill="#000"/><rect width="11" height="11" x="132" y="297" fill="#000"/><rect width="11" height="11" x="176" y="297" fill="#000"/><rect width="11" height="11" x="187" y="297" fill="#000"/><rect width="11" height="11" x="220" y="297" fill="#000"/><rect width="11" height="11" x="242" y="297" fill="#000"/><rect width="11" height="11" x="275" y="297" fill="#000"/><rect width="11" height="11" x="297" y="297" fill="#000"/><rect width="11" height="11" x="0" y="308" fill="#000"/><rect width="11" height="11" x="11" y="308" fill="#000"/><rect width="11" height="11" x="22" y="308" fill="#000"/><rect width="11" height="11" x="33" y="308" fill="#000"/><rect width="11" height="11" x="44" y="308" fill="#000"/><rect width="11" height="11" x="55" y="308" fill="#000"/><rect width="11" height="11" x="66" y="308" fill="#000"/><rect width="11" height="11" x="99" y="308" fill="#000"/><rect width="11" height="11" x="121" y="308" fill="#000"/><rect width="11" height="11" x="132" y="308" fill="#000"/><rect width="11" height="11" x="154" y="308" fill="#000"/><rect width="11" height="11" x="165" y="308" fill="#000"/><rect width="11" height="11" x="187" y="308" fill="#000"/><rect width="11" height="11" x="209" y="308" fill="#000"/><rect width="11" height="11" x="253" y="308" fill="#000"/><rect width="11" height="11" x="264" y="308" fill="#000"/><rect width="11" height="11" x="286" y="308" fill="#000"/></svg>